<svg width="500" height="500" viewBox="0 0 500 500" fill="none" xmlns="http://www.w3.org/2000/svg">
<mask id="mask0_322_144" style="mask-type:luminance" maskUnits="userSpaceOnUse" x="193" y="159" width="114" height="105">
<path d="M193.62 159.13H306.62V264H193.62V159.13Z" fill="white"/>
</mask>
<g mask="url(#mask0_322_144)">
<path d="M253.407 159.271L200.438 197.104V228.328H193.62V231.479H200.438V263.995H251.308V248.261H260.224V245.115H251.308V228.328H203.584V198.724L253.407 163.141L303.224 198.724V260.844H286.443V212.995H277.719L279.933 204.344H289.547L291.761 212.995H289.985V216.141H295.813L291.99 201.193H277.485L273.667 216.141H283.297V263.995H306.37V197.104L253.407 159.271ZM248.162 260.844H203.584V248.261H248.162V260.844ZM248.162 231.479V245.115H203.584V231.479H248.162Z" fill="white"/>
</g>
<path d="M225.677 241.771C226.979 241.771 228.036 240.714 228.036 239.406C228.036 238.109 226.979 237.047 225.677 237.047C224.369 237.047 223.317 238.109 223.317 239.406C223.317 240.714 224.369 241.771 225.677 241.771Z" fill="white"/>
<path d="M225.677 256.917C226.979 256.917 228.036 255.854 228.036 254.552C228.036 253.25 226.979 252.193 225.677 252.193C224.369 252.193 223.317 253.25 223.317 254.552C223.317 255.854 224.369 256.917 225.677 256.917Z" fill="white"/>
<path d="M109.805 317.634C106.107 317.634 102.972 316.837 100.388 315.238C97.8154 313.645 95.8936 311.608 94.6175 309.134C93.3519 306.65 92.7217 304.067 92.7217 301.384V301.238H95.4092V301.468C95.4092 303.483 95.8883 305.546 96.8467 307.655C97.805 309.754 99.3571 311.52 101.513 312.947C103.664 314.379 106.43 315.093 109.805 315.093C113.748 315.093 117.034 314.087 119.659 312.072C122.284 310.061 123.597 307.296 123.597 303.78C123.597 300.978 122.69 298.754 120.888 297.113C119.081 295.462 116.748 294.358 113.888 293.801L105.597 292.259C102.972 291.791 100.394 290.733 97.8675 289.093C95.3363 287.457 94.0758 284.504 94.0758 280.238C94.0758 277.613 94.6904 275.296 95.93 273.28C97.1644 271.27 98.93 269.697 101.222 268.572C103.524 267.447 106.201 266.884 109.243 266.884C112.711 266.884 115.68 267.613 118.138 269.072C120.597 270.52 122.435 272.384 123.659 274.676C124.878 276.968 125.493 279.358 125.493 281.843V281.988H122.826V281.843C122.826 280.067 122.399 278.233 121.555 276.343C120.706 274.442 119.263 272.801 117.222 271.426C115.19 270.041 112.534 269.343 109.243 269.343C106.67 269.343 104.42 269.837 102.493 270.822C100.576 271.796 99.1071 273.129 98.0967 274.822C97.0967 276.504 96.5967 278.353 96.5967 280.363C96.5967 282.811 97.3467 284.843 98.8467 286.468C100.347 288.082 102.545 289.166 105.451 289.718L112.493 291.051C116.045 291.707 119.206 292.916 121.972 294.676C124.732 296.442 126.118 299.426 126.118 303.634C126.118 306.317 125.456 308.712 124.138 310.822C122.831 312.921 120.935 314.582 118.451 315.801C115.961 317.025 113.081 317.634 109.805 317.634Z" fill="white"/>
<path d="M156.548 317.488C152.058 317.488 148.173 316.447 144.881 314.363C141.6 312.28 139.079 309.343 137.318 305.551C135.568 301.749 134.693 297.291 134.693 292.176C134.693 287.067 135.568 282.608 137.318 278.801C139.079 274.983 141.615 272.046 144.923 269.988C148.225 267.921 152.1 266.884 156.548 266.884C161.006 266.884 164.87 267.921 168.152 269.988C171.428 272.046 173.943 274.983 175.693 278.801C177.454 282.608 178.339 287.067 178.339 292.176C178.339 297.291 177.454 301.749 175.693 305.551C173.943 309.343 171.428 312.28 168.152 314.363C164.87 316.447 161.006 317.488 156.548 317.488ZM156.548 315.03C160.449 315.03 163.86 314.093 166.777 312.218C169.704 310.343 171.969 307.676 173.568 304.218C175.162 300.749 175.964 296.712 175.964 292.113C175.964 287.52 175.162 283.499 173.568 280.051C171.969 276.608 169.704 273.947 166.777 272.072C163.86 270.197 160.449 269.259 156.548 269.259C152.657 269.259 149.235 270.197 146.277 272.072C143.329 273.947 141.058 276.608 139.464 280.051C137.881 283.499 137.089 287.52 137.089 292.113C137.089 296.754 137.881 300.796 139.464 304.238C141.058 307.686 143.329 310.343 146.277 312.218C149.235 314.093 152.657 315.03 156.548 315.03Z" fill="white"/>
<path d="M191.565 270.322V290.926L213.773 290.78V293.03H191.565V317.134H189.169V267.926H216.586V270.322H191.565Z" fill="white"/>
<path d="M225.724 267.926H242.682C247.125 267.926 251 268.947 254.307 270.988C257.609 273.03 260.14 275.905 261.89 279.613C263.651 283.311 264.536 287.613 264.536 292.53C264.536 297.447 263.651 301.759 261.89 305.467C260.14 309.165 257.619 312.03 254.328 314.072C251.047 316.113 247.166 317.134 242.682 317.134H225.724V267.926ZM242.682 314.738C246.567 314.738 249.984 313.816 252.932 311.967C255.89 310.124 258.161 307.525 259.744 304.176C261.338 300.816 262.14 296.915 262.14 292.467C262.14 288.066 261.338 284.191 259.744 280.842C258.161 277.483 255.89 274.895 252.932 273.072C249.984 271.238 246.567 270.322 242.682 270.322H228.119V314.738H242.682Z" fill="white"/>
<path d="M276.906 270.322V290.78H300.176V293.03H276.906V314.738H302.635V317.134H274.51V267.926H302.635V270.322H276.906Z" fill="white"/>
<path d="M334.753 317.488C330.253 317.488 326.362 316.447 323.086 314.363C319.805 312.28 317.284 309.343 315.523 305.551C313.773 301.749 312.898 297.291 312.898 292.176C312.898 287.067 313.773 282.608 315.523 278.801C317.284 274.983 319.82 272.046 323.128 269.988C326.43 267.921 330.305 266.884 334.753 266.884C340.096 266.884 344.576 268.353 348.19 271.28C351.799 274.197 354.258 278.259 355.565 283.468H353.044C351.779 279.009 349.534 275.53 346.315 273.03C343.107 270.52 339.253 269.259 334.753 269.259C328.669 269.259 323.945 271.301 320.586 275.384C317.237 279.457 315.565 285.03 315.565 292.113C315.565 299.186 317.237 304.775 320.586 308.884C323.945 312.983 328.669 315.03 334.753 315.03C338.93 315.03 342.555 313.957 345.628 311.801C348.695 309.634 350.951 306.608 352.398 302.718H355.003C353.503 307.358 351.003 310.983 347.503 313.593C344.013 316.192 339.763 317.488 334.753 317.488Z" fill="white"/>
<path d="M385.294 317.488C380.804 317.488 376.919 316.447 373.627 314.363C370.346 312.28 367.825 309.343 366.064 305.551C364.314 301.749 363.439 297.291 363.439 292.176C363.439 287.067 364.314 282.608 366.064 278.801C367.825 274.983 370.361 272.046 373.669 269.988C376.971 267.921 380.846 266.884 385.294 266.884C389.752 266.884 393.617 267.921 396.898 269.988C400.174 272.046 402.689 274.983 404.439 278.801C406.2 282.608 407.085 287.067 407.085 292.176C407.085 297.291 406.2 301.749 404.439 305.551C402.689 309.343 400.174 312.28 396.898 314.363C393.617 316.447 389.752 317.488 385.294 317.488ZM385.294 315.03C389.195 315.03 392.606 314.093 395.523 312.218C398.45 310.343 400.715 307.676 402.314 304.218C403.908 300.749 404.71 296.712 404.71 292.113C404.71 287.52 403.908 283.499 402.314 280.051C400.715 276.608 398.45 273.947 395.523 272.072C392.606 270.197 389.195 269.259 385.294 269.259C381.403 269.259 377.981 270.197 375.023 272.072C372.075 273.947 369.804 276.608 368.21 280.051C366.627 283.499 365.835 287.52 365.835 292.113C365.835 296.754 366.627 300.796 368.21 304.238C369.804 307.686 372.075 310.343 375.023 312.218C377.981 314.093 381.403 315.03 385.294 315.03Z" fill="white"/>
<path d="M94.458 262.641H251" stroke="white" stroke-width="3"/>
<path d="M283.396 262.641H405.541" stroke="white" stroke-width="3"/>
<path d="M107.27 336.169H104.186L103.395 338.356H102.457L105.29 330.814H106.165L109.02 338.356H108.061L107.27 336.169ZM106.999 335.419L105.728 332.002H105.686L104.457 335.419H106.999Z" fill="white"/>
<path d="M120.141 335.356H118.787V338.356H117.87V330.814H120.433C121.042 330.814 121.542 330.929 121.933 331.148C122.318 331.372 122.599 331.658 122.766 332.002C122.943 332.351 123.037 332.71 123.037 333.085C123.037 333.617 122.875 334.085 122.558 334.502C122.25 334.919 121.766 335.184 121.099 335.294L123.099 338.356H122.078L120.141 335.356ZM118.787 334.544H120.308C120.818 334.544 121.25 334.434 121.599 334.21C121.959 333.992 122.141 333.617 122.141 333.085C122.141 332.559 121.959 332.189 121.599 331.981C121.25 331.762 120.818 331.648 120.308 331.648H118.787V334.544Z" fill="white"/>
<path d="M137.101 331.648H134.871V338.356H133.955V331.648H131.726V330.814H137.101V331.648Z" fill="white"/>
<path d="M146.097 330.814H147.034V338.356H146.097V330.814Z" fill="white"/>
<path d="M159.535 338.439C158.837 338.439 158.232 338.272 157.722 337.939C157.206 337.606 156.811 337.147 156.535 336.564C156.269 335.97 156.139 335.293 156.139 334.543C156.139 333.793 156.269 333.127 156.535 332.543C156.811 331.95 157.206 331.481 157.722 331.147C158.232 330.814 158.837 330.647 159.535 330.647C160.378 330.647 161.081 330.892 161.639 331.377C162.191 331.851 162.561 332.496 162.743 333.314H161.826C161.686 332.762 161.415 332.325 161.014 332.002C160.607 331.668 160.123 331.502 159.555 331.502C158.764 331.502 158.16 331.783 157.743 332.335C157.326 332.877 157.118 333.606 157.118 334.522C157.118 335.47 157.326 336.22 157.743 336.772C158.16 337.314 158.764 337.585 159.555 337.585C160.097 337.585 160.555 337.439 160.93 337.147C161.316 336.856 161.597 336.47 161.764 335.981H162.68C162.482 336.731 162.118 337.33 161.576 337.772C161.035 338.22 160.352 338.439 159.535 338.439Z" fill="white"/>
<path d="M176.146 337.523V338.356H171.709V330.814H172.646L172.626 337.523H176.146Z" fill="white"/>
<path d="M186.018 331.648V334.127H189.268V334.898H186.018V337.523H189.726V338.356H185.08V330.814H189.726V331.648H186.018Z" fill="white"/>
<path d="M201.361 338.439C200.778 338.439 200.278 338.325 199.861 338.085C199.455 337.835 199.153 337.522 198.944 337.147C198.736 336.772 198.632 336.377 198.632 335.96V335.897H199.653V335.96C199.653 336.21 199.705 336.46 199.819 336.71C199.944 336.96 200.132 337.168 200.382 337.335C200.642 337.502 200.976 337.585 201.382 337.585C201.851 337.585 202.241 337.47 202.549 337.231C202.866 336.981 203.028 336.647 203.028 336.231C203.028 335.887 202.908 335.616 202.674 335.418C202.45 335.21 202.163 335.075 201.819 335.002L200.715 334.793C199.45 334.517 198.819 333.851 198.819 332.793C198.819 332.366 198.924 331.991 199.132 331.668C199.34 331.351 199.621 331.101 199.986 330.918C200.361 330.741 200.799 330.647 201.299 330.647C201.84 330.647 202.304 330.762 202.694 330.981C203.095 331.205 203.392 331.496 203.59 331.856C203.799 332.22 203.903 332.585 203.903 332.96V333.002H202.882V332.981C202.882 332.762 202.825 332.538 202.715 332.314C202.616 332.08 202.444 331.887 202.194 331.731C201.955 331.564 201.642 331.481 201.257 331.481C200.799 331.481 200.434 331.606 200.174 331.856C199.908 332.106 199.778 332.418 199.778 332.793C199.778 333.101 199.882 333.356 200.09 333.564C200.299 333.762 200.58 333.897 200.944 333.981L201.924 334.168C203.309 334.45 204.007 335.127 204.007 336.21C204.007 336.642 203.892 337.033 203.674 337.377C203.45 337.71 203.137 337.976 202.736 338.168C202.33 338.351 201.871 338.439 201.361 338.439Z" fill="white"/>
<path d="M223.158 330.814H225.908C226.585 330.814 227.179 330.971 227.679 331.273C228.189 331.58 228.58 332.018 228.846 332.585C229.122 333.143 229.262 333.809 229.262 334.585C229.262 335.351 229.122 336.018 228.846 336.585C228.58 337.158 228.189 337.596 227.679 337.898C227.163 338.205 226.575 338.356 225.908 338.356H223.158V330.814ZM225.762 337.502C226.523 337.502 227.137 337.252 227.596 336.752C228.054 336.252 228.283 335.533 228.283 334.585C228.283 333.627 228.054 332.898 227.596 332.398C227.148 331.898 226.538 331.648 225.762 331.648H224.054V337.502H225.762Z" fill="white"/>
<path d="M239.168 331.648V334.127H242.418V334.898H239.168V337.523H242.876V338.356H238.23V330.814H242.876V331.648H239.168Z" fill="white"/>
<path d="M262.185 330.814H264.935C265.612 330.814 266.205 330.971 266.705 331.273C267.216 331.58 267.606 332.018 267.872 332.585C268.148 333.143 268.289 333.809 268.289 334.585C268.289 335.351 268.148 336.018 267.872 336.585C267.606 337.158 267.216 337.596 266.705 337.898C266.19 338.205 265.601 338.356 264.935 338.356H262.185V330.814ZM264.789 337.502C265.549 337.502 266.164 337.252 266.622 336.752C267.08 336.252 267.31 335.533 267.31 334.585C267.31 333.627 267.08 332.898 266.622 332.398C266.174 331.898 265.565 331.648 264.789 331.648H263.08V337.502H264.789Z" fill="white"/>
<path d="M278.193 331.648V334.127H281.443V334.898H278.193V337.523H281.902V338.356H277.256V330.814H281.902V331.648H278.193ZM279.235 330.044L280.277 328.127H281.277L279.964 330.044H279.235Z" fill="white"/>
<path d="M294.225 338.439C293.527 338.439 292.923 338.272 292.412 337.939C291.897 337.606 291.501 337.147 291.225 336.564C290.959 335.97 290.829 335.293 290.829 334.543C290.829 333.793 290.959 333.127 291.225 332.543C291.501 331.95 291.897 331.481 292.412 331.147C292.923 330.814 293.527 330.647 294.225 330.647C295.069 330.647 295.772 330.892 296.329 331.377C296.881 331.851 297.251 332.496 297.433 333.314H296.517C296.376 332.762 296.105 332.325 295.704 332.002C295.298 331.668 294.813 331.502 294.246 331.502C293.454 331.502 292.85 331.783 292.433 332.335C292.017 332.877 291.808 333.606 291.808 334.522C291.808 335.47 292.017 336.22 292.433 336.772C292.85 337.314 293.454 337.585 294.246 337.585C294.787 337.585 295.246 337.439 295.621 337.147C296.006 336.856 296.287 336.47 296.454 335.981H297.371C297.173 336.731 296.808 337.33 296.267 337.772C295.725 338.22 295.043 338.439 294.225 338.439Z" fill="white"/>
<path d="M309.545 338.439C308.836 338.439 308.222 338.272 307.711 337.939C307.196 337.606 306.8 337.147 306.524 336.564C306.258 335.97 306.128 335.293 306.128 334.543C306.128 333.809 306.258 333.142 306.524 332.543C306.8 331.95 307.196 331.481 307.711 331.147C308.222 330.814 308.836 330.647 309.545 330.647C310.253 330.647 310.857 330.814 311.357 331.147C311.868 331.481 312.258 331.95 312.524 332.543C312.8 333.127 312.94 333.804 312.94 334.564C312.94 335.314 312.8 335.981 312.524 336.564C312.258 337.147 311.868 337.606 311.357 337.939C310.857 338.272 310.253 338.439 309.545 338.439ZM309.545 337.564C310.029 337.564 310.451 337.439 310.815 337.189C311.19 336.939 311.472 336.585 311.67 336.127C311.862 335.658 311.961 335.127 311.961 334.543C311.961 333.96 311.862 333.439 311.67 332.981C311.472 332.512 311.19 332.147 310.815 331.897C310.451 331.637 310.029 331.502 309.545 331.502C309.045 331.502 308.607 331.637 308.232 331.897C307.868 332.163 307.591 332.522 307.399 332.981C307.201 333.439 307.107 333.96 307.107 334.543C307.107 335.127 307.201 335.647 307.399 336.106C307.591 336.564 307.868 336.929 308.232 337.189C308.607 337.439 309.045 337.564 309.545 337.564Z" fill="white"/>
<path d="M324.259 335.356H322.905V338.356H321.988V330.814H324.551C325.16 330.814 325.66 330.929 326.051 331.148C326.436 331.372 326.717 331.658 326.884 332.002C327.061 332.351 327.155 332.71 327.155 333.085C327.155 333.617 326.993 334.085 326.676 334.502C326.368 334.919 325.884 335.184 325.217 335.294L327.217 338.356H326.197L324.259 335.356ZM322.905 334.544H324.426C324.936 334.544 325.368 334.434 325.717 334.21C326.077 333.992 326.259 333.617 326.259 333.085C326.259 332.559 326.077 332.189 325.717 331.981C325.368 331.762 324.936 331.648 324.426 331.648H322.905V334.544Z" fill="white"/>
<path d="M340.573 336.169H337.49L336.698 338.356H335.761L338.594 330.814H339.469L342.323 338.356H341.365L340.573 336.169ZM340.302 335.419L339.032 332.002H338.99L337.761 335.419H340.302Z" fill="white"/>
<path d="M356.216 331.648H353.987V338.356H353.07V331.648H350.841V330.814H356.216V331.648Z" fill="white"/>
<path d="M365.212 330.814H366.149V338.356H365.212V330.814Z" fill="white"/>
<path d="M378.629 338.439C377.92 338.439 377.306 338.272 376.795 337.939C376.28 337.606 375.884 337.147 375.608 336.564C375.342 335.97 375.212 335.293 375.212 334.543C375.212 333.809 375.342 333.142 375.608 332.543C375.884 331.95 376.28 331.481 376.795 331.147C377.306 330.814 377.92 330.647 378.629 330.647C379.337 330.647 379.941 330.814 380.441 331.147C380.951 331.481 381.342 331.95 381.608 332.543C381.884 333.127 382.024 333.804 382.024 334.564C382.024 335.314 381.884 335.981 381.608 336.564C381.342 337.147 380.951 337.606 380.441 337.939C379.941 338.272 379.337 338.439 378.629 338.439ZM378.629 337.564C379.113 337.564 379.535 337.439 379.899 337.189C380.274 336.939 380.556 336.585 380.754 336.127C380.946 335.658 381.045 335.127 381.045 334.543C381.045 333.96 380.946 333.439 380.754 332.981C380.556 332.512 380.274 332.147 379.899 331.897C379.535 331.637 379.113 331.502 378.629 331.502C378.129 331.502 377.691 331.637 377.316 331.897C376.951 332.163 376.675 332.522 376.483 332.981C376.285 333.439 376.191 333.96 376.191 334.543C376.191 335.127 376.285 335.647 376.483 336.106C376.675 336.564 376.951 336.929 377.316 337.189C377.691 337.439 378.129 337.564 378.629 337.564Z" fill="white"/>
<path d="M391.071 330.814H392.113L396.155 336.877H396.196V330.814H397.113V338.356H396.05L392.03 332.398H391.988V338.356H391.071V330.814Z" fill="white"/>
</svg>
