<svg width="316" height="180" viewBox="0 0 316 180" fill="none" xmlns="http://www.w3.org/2000/svg">
<mask id="mask0_324_19" style="mask-type:luminance" maskUnits="userSpaceOnUse" x="101" y="0" width="114" height="105">
<path d="M101.62 0.129883H214.62V105H101.62V0.129883Z" fill="white"/>
</mask>
<g mask="url(#mask0_324_19)">
<path d="M161.537 0.270996L108.453 38.104V69.328H101.62V72.479H108.453V104.995H159.438V89.261H168.375V86.115H159.438V69.328H111.604V39.724L161.537 4.14101L211.469 39.724V101.844H194.651V53.995H185.907L188.12 45.344H197.761L199.979 53.995H198.198V57.141H204.037L200.209 42.193H185.672L181.844 57.141H191.495V104.995H214.62V38.104L161.537 0.270996ZM156.282 101.844H111.604V89.261H156.282V101.844ZM156.282 72.479V86.115H111.604V72.479H156.282Z" fill="#231F20"/>
</g>
<path d="M133.75 82.7709C135.057 82.7709 136.114 81.7139 136.114 80.4059C136.114 79.1089 135.057 78.0469 133.75 78.0469C132.437 78.0469 131.38 79.1089 131.38 80.4059C131.38 81.7139 132.437 82.7709 133.75 82.7709Z" fill="#231F20"/>
<path d="M133.75 97.9169C135.057 97.9169 136.114 96.8539 136.114 95.5519C136.114 94.2499 135.057 93.1929 133.75 93.1929C132.437 93.1929 131.38 94.2499 131.38 95.5519C131.38 96.8539 132.437 97.9169 133.75 97.9169Z" fill="#231F20"/>
<path d="M17.805 158.634C14.107 158.634 10.972 157.837 8.38798 156.238C5.81538 154.645 3.89358 152.608 2.61748 150.134C1.35188 147.65 0.72168 145.067 0.72168 142.384V142.238H3.40918V142.468C3.40918 144.483 3.88828 146.546 4.84668 148.655C5.80498 150.754 7.35708 152.52 9.51298 153.947C11.664 155.379 14.43 156.093 17.805 156.093C21.748 156.093 25.034 155.087 27.659 153.072C30.284 151.061 31.597 148.296 31.597 144.78C31.597 141.978 30.69 139.754 28.888 138.113C27.081 136.462 24.748 135.358 21.888 134.801L13.597 133.259C10.972 132.791 8.39398 131.733 5.86748 130.093C3.33628 128.457 2.07578 125.504 2.07578 121.238C2.07578 118.613 2.69038 116.296 3.92998 114.28C5.16438 112.27 6.92998 110.697 9.22198 109.572C11.524 108.447 14.201 107.884 17.243 107.884C20.711 107.884 23.68 108.613 26.138 110.072C28.597 111.52 30.435 113.384 31.659 115.676C32.878 117.968 33.493 120.358 33.493 122.843V122.988H30.826V122.843C30.826 121.067 30.399 119.233 29.555 117.343C28.706 115.442 27.263 113.801 25.222 112.426C23.19 111.041 20.534 110.343 17.243 110.343C14.67 110.343 12.42 110.837 10.493 111.822C8.57597 112.796 7.10708 114.129 6.09668 115.822C5.09668 117.504 4.59668 119.353 4.59668 121.363C4.59668 123.811 5.34668 125.843 6.84668 127.468C8.34698 129.082 10.545 130.166 13.451 130.718L20.493 132.051C24.045 132.707 27.206 133.916 29.972 135.676C32.732 137.442 34.118 140.426 34.118 144.634C34.118 147.317 33.456 149.712 32.138 151.822C30.831 153.921 28.935 155.582 26.451 156.801C23.961 158.025 21.081 158.634 17.805 158.634Z" fill="#242424"/>
<path d="M64.5484 158.488C60.0584 158.488 56.1734 157.447 52.8814 155.363C49.6004 153.28 47.0794 150.343 45.3184 146.551C43.5684 142.749 42.6934 138.291 42.6934 133.176C42.6934 128.067 43.5684 123.608 45.3184 119.801C47.0794 115.983 49.6154 113.046 52.9234 110.988C56.2254 108.921 60.1004 107.884 64.5484 107.884C69.0064 107.884 72.8704 108.921 76.1524 110.988C79.4284 113.046 81.9434 115.983 83.6934 119.801C85.4544 123.608 86.3394 128.067 86.3394 133.176C86.3394 138.291 85.4544 142.749 83.6934 146.551C81.9434 150.343 79.4284 153.28 76.1524 155.363C72.8704 157.447 69.0064 158.488 64.5484 158.488ZM64.5484 156.03C68.4494 156.03 71.8604 155.093 74.7774 153.218C77.7044 151.343 79.9694 148.676 81.5684 145.218C83.1624 141.749 83.9644 137.712 83.9644 133.113C83.9644 128.52 83.1624 124.499 81.5684 121.051C79.9694 117.608 77.7044 114.947 74.7774 113.072C71.8604 111.197 68.4494 110.259 64.5484 110.259C60.6574 110.259 57.2354 111.197 54.2774 113.072C51.3294 114.947 49.0584 117.608 47.4644 121.051C45.8814 124.499 45.0894 128.52 45.0894 133.113C45.0894 137.754 45.8814 141.796 47.4644 145.238C49.0584 148.686 51.3294 151.343 54.2774 153.218C57.2354 155.093 60.6574 156.03 64.5484 156.03Z" fill="#242424"/>
<path d="M99.5649 111.322V131.926L121.773 131.78V134.03H99.5649V158.134H97.1689V108.926H124.586V111.322H99.5649Z" fill="#242424"/>
<path d="M133.724 108.926H150.682C155.125 108.926 159 109.947 162.307 111.988C165.609 114.03 168.14 116.905 169.89 120.613C171.651 124.311 172.536 128.613 172.536 133.53C172.536 138.447 171.651 142.759 169.89 146.467C168.14 150.165 165.619 153.03 162.328 155.072C159.047 157.113 155.166 158.134 150.682 158.134H133.724V108.926ZM150.682 155.738C154.567 155.738 157.984 154.816 160.932 152.967C163.89 151.124 166.161 148.525 167.744 145.176C169.338 141.816 170.14 137.915 170.14 133.467C170.14 129.066 169.338 125.191 167.744 121.842C166.161 118.483 163.89 115.895 160.932 114.072C157.984 112.238 154.567 111.322 150.682 111.322H136.119V155.738H150.682Z" fill="#242424"/>
<path d="M184.906 111.322V131.78H208.176V134.03H184.906V155.738H210.635V158.134H182.51V108.926H210.635V111.322H184.906Z" fill="#242424"/>
<path d="M242.753 158.488C238.253 158.488 234.362 157.447 231.086 155.363C227.805 153.28 225.284 150.343 223.523 146.551C221.773 142.749 220.898 138.291 220.898 133.176C220.898 128.067 221.773 123.608 223.523 119.801C225.284 115.983 227.82 113.046 231.128 110.988C234.43 108.921 238.305 107.884 242.753 107.884C248.096 107.884 252.576 109.353 256.19 112.28C259.799 115.197 262.258 119.259 263.565 124.468H261.044C259.779 120.009 257.534 116.53 254.315 114.03C251.107 111.52 247.253 110.259 242.753 110.259C236.669 110.259 231.945 112.301 228.586 116.384C225.237 120.457 223.565 126.03 223.565 133.113C223.565 140.186 225.237 145.775 228.586 149.884C231.945 153.983 236.669 156.03 242.753 156.03C246.93 156.03 250.555 154.957 253.628 152.801C256.695 150.634 258.951 147.608 260.398 143.718H263.003C261.503 148.358 259.003 151.983 255.503 154.593C252.013 157.192 247.763 158.488 242.753 158.488Z" fill="#242424"/>
<path d="M293.294 158.488C288.804 158.488 284.919 157.447 281.627 155.363C278.346 153.28 275.825 150.343 274.064 146.551C272.314 142.749 271.439 138.291 271.439 133.176C271.439 128.067 272.314 123.608 274.064 119.801C275.825 115.983 278.361 113.046 281.669 110.988C284.971 108.921 288.846 107.884 293.294 107.884C297.752 107.884 301.617 108.921 304.898 110.988C308.174 113.046 310.689 115.983 312.439 119.801C314.2 123.608 315.085 128.067 315.085 133.176C315.085 138.291 314.2 142.749 312.439 146.551C310.689 150.343 308.174 153.28 304.898 155.363C301.617 157.447 297.752 158.488 293.294 158.488ZM293.294 156.03C297.195 156.03 300.606 155.093 303.523 153.218C306.45 151.343 308.715 148.676 310.314 145.218C311.908 141.749 312.71 137.712 312.71 133.113C312.71 128.52 311.908 124.499 310.314 121.051C308.715 117.608 306.45 114.947 303.523 113.072C300.606 111.197 297.195 110.259 293.294 110.259C289.403 110.259 285.981 111.197 283.023 113.072C280.075 114.947 277.804 117.608 276.21 121.051C274.627 124.499 273.835 128.52 273.835 133.113C273.835 137.754 274.627 141.796 276.21 145.238C277.804 148.686 280.075 151.343 283.023 153.218C285.981 155.093 289.403 156.03 293.294 156.03Z" fill="#242424"/>
<path d="M2.45801 103.641H159" stroke="#242424" stroke-width="3"/>
<path d="M191.396 103.641H313.54" stroke="#242424" stroke-width="3"/>
<path d="M15.27 177.169H12.186L11.395 179.356H10.457L13.29 171.814H14.165L17.02 179.356H16.061L15.27 177.169ZM14.999 176.419L13.728 173.002H13.686L12.457 176.419H14.999Z" fill="#242424"/>
<path d="M28.1411 176.356H26.7871V179.356H25.8701V171.814H28.4331C29.0421 171.814 29.5421 171.929 29.9331 172.148C30.3181 172.372 30.5991 172.658 30.7661 173.002C30.9431 173.351 31.0371 173.71 31.0371 174.085C31.0371 174.617 30.8751 175.085 30.5581 175.502C30.2501 175.919 29.7661 176.184 29.0991 176.294L31.0991 179.356H30.0781L28.1411 176.356ZM26.7871 175.544H28.3081C28.8181 175.544 29.2501 175.434 29.5991 175.21C29.9591 174.992 30.1411 174.617 30.1411 174.085C30.1411 173.559 29.9591 173.189 29.5991 172.981C29.2501 172.762 28.8181 172.648 28.3081 172.648H26.7871V175.544Z" fill="#242424"/>
<path d="M45.1006 172.648H42.8706V179.356H41.9546V172.648H39.7256V171.814H45.1006V172.648Z" fill="#242424"/>
<path d="M54.0967 171.814H55.0337V179.356H54.0967V171.814Z" fill="#242424"/>
<path d="M67.5347 179.439C66.8367 179.439 66.2317 179.272 65.7217 178.939C65.2057 178.606 64.8107 178.147 64.5347 177.564C64.2687 176.97 64.1387 176.293 64.1387 175.543C64.1387 174.793 64.2687 174.127 64.5347 173.543C64.8107 172.95 65.2057 172.481 65.7217 172.147C66.2317 171.814 66.8367 171.647 67.5347 171.647C68.3777 171.647 69.0807 171.892 69.6387 172.377C70.1907 172.851 70.5607 173.496 70.7427 174.314H69.8257C69.6857 173.762 69.4147 173.325 69.0137 173.002C68.6067 172.668 68.1227 172.502 67.5547 172.502C66.7637 172.502 66.1597 172.783 65.7427 173.335C65.3257 173.877 65.1177 174.606 65.1177 175.522C65.1177 176.47 65.3257 177.22 65.7427 177.772C66.1597 178.314 66.7637 178.585 67.5547 178.585C68.0967 178.585 68.5547 178.439 68.9297 178.147C69.3157 177.856 69.5967 177.47 69.7637 176.981H70.6797C70.4817 177.731 70.1177 178.33 69.5757 178.772C69.0347 179.22 68.3517 179.439 67.5347 179.439Z" fill="#242424"/>
<path d="M84.146 178.523V179.356H79.709V171.814H80.646L80.626 178.523H84.146Z" fill="#242424"/>
<path d="M94.0181 172.648V175.127H97.2681V175.898H94.0181V178.523H97.7261V179.356H93.0801V171.814H97.7261V172.648H94.0181Z" fill="#242424"/>
<path d="M109.361 179.439C108.778 179.439 108.278 179.325 107.861 179.085C107.455 178.835 107.153 178.522 106.944 178.147C106.736 177.772 106.632 177.377 106.632 176.96V176.897H107.653V176.96C107.653 177.21 107.705 177.46 107.819 177.71C107.944 177.96 108.132 178.168 108.382 178.335C108.642 178.502 108.976 178.585 109.382 178.585C109.851 178.585 110.241 178.47 110.549 178.231C110.866 177.981 111.028 177.647 111.028 177.231C111.028 176.887 110.908 176.616 110.674 176.418C110.45 176.21 110.163 176.075 109.819 176.002L108.715 175.793C107.45 175.517 106.819 174.851 106.819 173.793C106.819 173.366 106.924 172.991 107.132 172.668C107.34 172.351 107.621 172.101 107.986 171.918C108.361 171.741 108.799 171.647 109.299 171.647C109.84 171.647 110.304 171.762 110.694 171.981C111.095 172.205 111.392 172.496 111.59 172.856C111.799 173.22 111.903 173.585 111.903 173.96V174.002H110.882V173.981C110.882 173.762 110.825 173.538 110.715 173.314C110.616 173.08 110.444 172.887 110.194 172.731C109.955 172.564 109.642 172.481 109.257 172.481C108.799 172.481 108.434 172.606 108.174 172.856C107.908 173.106 107.778 173.418 107.778 173.793C107.778 174.101 107.882 174.356 108.09 174.564C108.299 174.762 108.58 174.897 108.944 174.981L109.924 175.168C111.309 175.45 112.007 176.127 112.007 177.21C112.007 177.642 111.892 178.033 111.674 178.377C111.45 178.71 111.137 178.976 110.736 179.168C110.33 179.351 109.871 179.439 109.361 179.439Z" fill="#242424"/>
<path d="M131.158 171.814H133.908C134.585 171.814 135.179 171.971 135.679 172.273C136.189 172.58 136.58 173.018 136.846 173.585C137.122 174.143 137.262 174.809 137.262 175.585C137.262 176.351 137.122 177.018 136.846 177.585C136.58 178.158 136.189 178.596 135.679 178.898C135.163 179.205 134.575 179.356 133.908 179.356H131.158V171.814ZM133.762 178.502C134.523 178.502 135.137 178.252 135.596 177.752C136.054 177.252 136.283 176.533 136.283 175.585C136.283 174.627 136.054 173.898 135.596 173.398C135.148 172.898 134.538 172.648 133.762 172.648H132.054V178.502H133.762Z" fill="#242424"/>
<path d="M147.168 172.648V175.127H150.418V175.898H147.168V178.523H150.876V179.356H146.23V171.814H150.876V172.648H147.168Z" fill="#242424"/>
<path d="M170.185 171.814H172.935C173.612 171.814 174.205 171.971 174.705 172.273C175.216 172.58 175.606 173.018 175.872 173.585C176.148 174.143 176.289 174.809 176.289 175.585C176.289 176.351 176.148 177.018 175.872 177.585C175.606 178.158 175.216 178.596 174.705 178.898C174.19 179.205 173.601 179.356 172.935 179.356H170.185V171.814ZM172.789 178.502C173.549 178.502 174.164 178.252 174.622 177.752C175.08 177.252 175.31 176.533 175.31 175.585C175.31 174.627 175.08 173.898 174.622 173.398C174.174 172.898 173.565 172.648 172.789 172.648H171.08V178.502H172.789Z" fill="#242424"/>
<path d="M186.193 172.648V175.127H189.443V175.898H186.193V178.523H189.902V179.356H185.256V171.814H189.902V172.648H186.193ZM187.235 171.044L188.277 169.127H189.277L187.964 171.044H187.235Z" fill="#242424"/>
<path d="M202.225 179.439C201.527 179.439 200.923 179.272 200.412 178.939C199.897 178.606 199.501 178.147 199.225 177.564C198.959 176.97 198.829 176.293 198.829 175.543C198.829 174.793 198.959 174.127 199.225 173.543C199.501 172.95 199.897 172.481 200.412 172.147C200.923 171.814 201.527 171.647 202.225 171.647C203.069 171.647 203.772 171.892 204.329 172.377C204.881 172.851 205.251 173.496 205.433 174.314H204.517C204.376 173.762 204.105 173.325 203.704 173.002C203.298 172.668 202.813 172.502 202.246 172.502C201.454 172.502 200.85 172.783 200.433 173.335C200.017 173.877 199.808 174.606 199.808 175.522C199.808 176.47 200.017 177.22 200.433 177.772C200.85 178.314 201.454 178.585 202.246 178.585C202.787 178.585 203.246 178.439 203.621 178.147C204.006 177.856 204.287 177.47 204.454 176.981H205.371C205.173 177.731 204.808 178.33 204.267 178.772C203.725 179.22 203.043 179.439 202.225 179.439Z" fill="#242424"/>
<path d="M217.545 179.439C216.836 179.439 216.222 179.272 215.711 178.939C215.196 178.606 214.8 178.147 214.524 177.564C214.258 176.97 214.128 176.293 214.128 175.543C214.128 174.809 214.258 174.142 214.524 173.543C214.8 172.95 215.196 172.481 215.711 172.147C216.222 171.814 216.836 171.647 217.545 171.647C218.253 171.647 218.857 171.814 219.357 172.147C219.868 172.481 220.258 172.95 220.524 173.543C220.8 174.127 220.94 174.804 220.94 175.564C220.94 176.314 220.8 176.981 220.524 177.564C220.258 178.147 219.868 178.606 219.357 178.939C218.857 179.272 218.253 179.439 217.545 179.439ZM217.545 178.564C218.029 178.564 218.451 178.439 218.815 178.189C219.19 177.939 219.472 177.585 219.67 177.127C219.862 176.658 219.961 176.127 219.961 175.543C219.961 174.96 219.862 174.439 219.67 173.981C219.472 173.512 219.19 173.147 218.815 172.897C218.451 172.637 218.029 172.502 217.545 172.502C217.045 172.502 216.607 172.637 216.232 172.897C215.868 173.163 215.591 173.522 215.399 173.981C215.201 174.439 215.107 174.96 215.107 175.543C215.107 176.127 215.201 176.647 215.399 177.106C215.591 177.564 215.868 177.929 216.232 178.189C216.607 178.439 217.045 178.564 217.545 178.564Z" fill="#242424"/>
<path d="M232.259 176.356H230.905V179.356H229.988V171.814H232.551C233.16 171.814 233.66 171.929 234.051 172.148C234.436 172.372 234.717 172.658 234.884 173.002C235.061 173.351 235.155 173.71 235.155 174.085C235.155 174.617 234.993 175.085 234.676 175.502C234.368 175.919 233.884 176.184 233.217 176.294L235.217 179.356H234.197L232.259 176.356ZM230.905 175.544H232.426C232.936 175.544 233.368 175.434 233.717 175.21C234.077 174.992 234.259 174.617 234.259 174.085C234.259 173.559 234.077 173.189 233.717 172.981C233.368 172.762 232.936 172.648 232.426 172.648H230.905V175.544Z" fill="#242424"/>
<path d="M248.573 177.169H245.49L244.698 179.356H243.761L246.594 171.814H247.469L250.323 179.356H249.365L248.573 177.169ZM248.302 176.419L247.032 173.002H246.99L245.761 176.419H248.302Z" fill="#242424"/>
<path d="M264.216 172.648H261.987V179.356H261.07V172.648H258.841V171.814H264.216V172.648Z" fill="#242424"/>
<path d="M273.212 171.814H274.149V179.356H273.212V171.814Z" fill="#242424"/>
<path d="M286.629 179.439C285.92 179.439 285.306 179.272 284.795 178.939C284.28 178.606 283.884 178.147 283.608 177.564C283.342 176.97 283.212 176.293 283.212 175.543C283.212 174.809 283.342 174.142 283.608 173.543C283.884 172.95 284.28 172.481 284.795 172.147C285.306 171.814 285.92 171.647 286.629 171.647C287.337 171.647 287.941 171.814 288.441 172.147C288.951 172.481 289.342 172.95 289.608 173.543C289.884 174.127 290.024 174.804 290.024 175.564C290.024 176.314 289.884 176.981 289.608 177.564C289.342 178.147 288.951 178.606 288.441 178.939C287.941 179.272 287.337 179.439 286.629 179.439ZM286.629 178.564C287.113 178.564 287.535 178.439 287.899 178.189C288.274 177.939 288.556 177.585 288.754 177.127C288.946 176.658 289.045 176.127 289.045 175.543C289.045 174.96 288.946 174.439 288.754 173.981C288.556 173.512 288.274 173.147 287.899 172.897C287.535 172.637 287.113 172.502 286.629 172.502C286.129 172.502 285.691 172.637 285.316 172.897C284.951 173.163 284.675 173.522 284.483 173.981C284.285 174.439 284.191 174.96 284.191 175.543C284.191 176.127 284.285 176.647 284.483 177.106C284.675 177.564 284.951 177.929 285.316 178.189C285.691 178.439 286.129 178.564 286.629 178.564Z" fill="#242424"/>
<path d="M299.071 171.814H300.113L304.155 177.877H304.196V171.814H305.113V179.356H304.05L300.03 173.398H299.988V179.356H299.071V171.814Z" fill="#242424"/>
</svg>
